<?xml version="1.0" encoding="UTF-8" standalone="no"?>
<!-- Created with Inkscape (http://www.inkscape.org/) -->

<svg
   version="1.1"
   id="svg1107"
   width="500"
   height="500"
   viewBox="0 0 500.00001 499.99999"
   sodipodi:docname="logo.svg"
   inkscape:version="1.3 (0e150ed6c4, 2023-07-21)"
   xmlns:inkscape="http://www.inkscape.org/namespaces/inkscape"
   xmlns:sodipodi="http://sodipodi.sourceforge.net/DTD/sodipodi-0.dtd"
   xmlns="http://www.w3.org/2000/svg"
   xmlns:svg="http://www.w3.org/2000/svg">
  <defs
     id="defs1111">
    <clipPath
       id="prefix__clip0">
      <path
         fill="#ffffff"
         d="M 0,0 H 54 V 32.4 H 0 Z"
         id="path2" />
    </clipPath>
  </defs>
  <sodipodi:namedview
     id="namedview1109"
     pagecolor="#ffffff"
     bordercolor="#000000"
     borderopacity="0.25"
     inkscape:showpageshadow="2"
     inkscape:pageopacity="0.0"
     inkscape:pagecheckerboard="0"
     inkscape:deskcolor="#d1d1d1"
     showgrid="false"
     inkscape:zoom="1.5404999"
     inkscape:cx="237.26064"
     inkscape:cy="282.37586"
     inkscape:window-width="2514"
     inkscape:window-height="1350"
     inkscape:window-x="20"
     inkscape:window-y="64"
     inkscape:window-maximized="1"
     inkscape:current-layer="g1115">
    <inkscape:page
       x="0"
       y="0"
       id="page1113"
       width="500"
       height="500"
       margin="0"
       bleed="0" />
  </sodipodi:namedview>
  <g
     id="g1115"
     inkscape:groupmode="layer"
     inkscape:label="Page 1"
     transform="matrix(1.3333333,0,0,-1.3333333,0,2666.6667)">
    <g
       id="g5"
       transform="matrix(1.0710049,0,0,1.0710036,-13.313419,-128.69401)">
      <g
         id="g4">
        <path
           d="m 187.5,1637.4306 c -46.76576,0 -90.726214,18.2057 -123.794707,51.2737 -33.068494,33.0679 -51.27453,77.0339 -51.27453,123.7926 0,46.765 18.206036,90.7247 51.27453,123.7926 33.068493,33.0679 77.028947,51.28 123.794707,51.28 46.76577,0 90.72622,-18.2121 123.79471,-51.28 33.0685,-33.0679 51.27453,-77.0276 51.27453,-123.7926 0,-46.7587 -18.20603,-90.7247 -51.27453,-123.7926 -33.06849,-33.068 -77.02894,-51.2737 -123.79471,-51.2737"
           style="fill:#610c9f;fill-opacity:1;fill-rule:nonzero;stroke:none;stroke-width:0.0633248"
           id="path1431" />
        <path
           d="m 350.13848,1812.4969 c 0,-7.4216 -0.49394,-14.7292 -1.46282,-21.8849 -3.05861,-22.7334 -10.81596,-43.9914 -22.26519,-62.7417 -23.56336,-38.5961 -62.76174,-66.6108 -108.7866,-75.2292 h -0.006 c -5.71195,-1.0702 -11.51255,-1.8364 -17.41447,-2.2924 h -0.006 c -2.12139,-0.1646 -4.24913,-0.2912 -6.39585,-0.3672 -1.32984,-0.051 -2.65334,-0.089 -3.9895,-0.1014 -0.76624,-0.013 -1.53881,-0.019 -2.31138,-0.019 -1.17152,0 -2.34937,0.013 -3.52089,0.032 -1.64012,0.038 -3.25492,0.1013 -4.87605,0.1837 h -0.006 c -2.17839,0.1076 -4.34412,0.2596 -6.50351,0.4622 -6.14256,0.5509 -12.1838,1.4565 -18.11105,2.6786 h -0.006 c -43.77681,9.0237 -81.119765,35.6453 -104.322171,72.139 -12.323111,19.3773 -20.663059,41.5471 -23.841991,65.3444 -0.962545,7.1303 -1.45015,14.4062 -1.45015,21.7962 0,12.5635 1.418488,24.7914 4.12248,36.5318 7.884005,34.3787 26.678966,64.6034 52.534703,86.8302 18.149043,15.6094 39.787309,27.2864 63.578639,33.6885 13.51997,3.6475 27.7365,5.5915 42.40265,5.5915 14.25454,0 28.07213,-1.83 41.2438,-5.2812 23.55069,-6.1488 45.02432,-17.4585 63.13536,-32.6373 26.13437,-21.8912 45.28396,-51.8436 53.63024,-86.0324 3.02695,-12.3989 4.62908,-25.355 4.62908,-38.6911"
           style="fill:#d00fce;fill-opacity:1;fill-rule:nonzero;stroke:none;stroke-width:0.0633248"
           id="path1433" />
        <path
           d="m 193.80088,1649.9815 98.07828,287.2389 c 26.13437,-21.8912 45.28396,-51.8436 53.63024,-86.0324 3.02695,-12.3989 4.62908,-25.355 4.62908,-38.6911 0,-7.4216 -0.49394,-14.7292 -1.46282,-21.8849 -3.05861,-22.7334 -10.81596,-43.9914 -22.26519,-62.7417 v 0 l -108.7866,-75.2292 v 0 h -0.006 c -5.71195,-1.0702 -11.51255,-1.8364 -17.41447,-2.2924 h -0.006 c -2.12139,-0.1646 -4.24913,-0.2912 -6.39585,-0.3672"
           style="fill:#b30bb0;fill-opacity:1;fill-rule:nonzero;stroke:none;stroke-width:0.0633248"
           id="path1435" />
        <path
           d="m 350.13848,1812.4969 c 0,-7.4216 -0.49394,-14.7292 -1.46282,-21.8849 -3.05861,-22.7334 -10.81596,-43.9914 -22.26519,-62.7417 -23.56336,-38.5961 -62.76174,-66.6108 -108.7866,-75.2292 h -0.006 c -5.71195,-1.0702 -11.51255,-1.8364 -17.41447,-2.2924 l 145.306,200.8393 c 3.02695,-12.3989 4.62908,-25.355 4.62908,-38.6911"
           style="fill:#940b92;fill-opacity:1;fill-rule:nonzero;stroke:none;stroke-width:0.0633248"
           id="path1437" />
        <path
           d="m 179.09673,1650.0765 c -2.17839,0.1076 -4.34412,0.2596 -6.50351,0.4622 -6.14256,0.5509 -12.1838,1.4565 -18.11105,2.6786 h -0.006 v 0 l -104.322171,72.139 v 0 c -12.323111,19.3773 -20.663059,41.5471 -23.841991,65.3444 -0.962545,7.1303 -1.45015,14.4062 -1.45015,21.7962 0,12.5635 1.418488,24.7914 4.12248,36.5318 7.884005,34.3787 26.678966,64.6034 52.534703,86.8302 l 97.578019,-285.7824"
           style="fill:#b30bb0;fill-opacity:1;fill-rule:nonzero;stroke:none;stroke-width:0.0633248"
           id="path1439" />
        <path
           d="m 28.984008,1849.0287 143.609212,-198.49 c -6.14256,0.5509 -12.1838,1.4565 -18.11105,2.6786 h -0.006 c -43.77681,9.0237 -81.119765,35.6453 -104.322171,72.139 -12.323111,19.3773 -20.663059,41.5471 -23.841991,65.3444 -0.962545,7.1303 -1.45015,14.4062 -1.45015,21.7962 0,12.5635 1.418488,24.7914 4.12248,36.5318"
           style="fill:#940b92;fill-opacity:1;fill-rule:nonzero;stroke:none;stroke-width:0.0633248"
           id="path1441" />
        <path
           d="m 187.5,1649.8612 c -1.17152,0 -2.34937,0.013 -3.52089,0.032 v 0 l -38.88176,319.6546 c 13.51997,3.6475 27.7365,5.5915 42.40265,5.5915 14.25454,0 28.07213,-1.83 41.2438,-5.2812 l -38.93242,-319.9776 v 0 c -0.76624,-0.013 -1.53881,-0.019 -2.31138,-0.019"
           style="fill:#ee1cec;fill-opacity:1;fill-rule:nonzero;stroke:none;stroke-width:0.0633248"
           id="path1443" />
      </g>
      <g
         id="g3">
        <g
           clip-path="url(#prefix__clip0)"
           id="g2"
           transform="matrix(4.943357,0,0,-4.943357,54.029365,1892.5825)"
           style="fill:#610c9f;fill-opacity:1">
          <path
             fill="#38bdf8"
             fill-rule="evenodd"
             d="M 27,0 C 19.8,0 15.3,3.6 13.5,10.8 16.2,7.2 19.35,5.85 22.95,6.75 25.004,7.263 26.472,8.754 28.097,10.403 30.744,13.09 33.808,16.2 40.5,16.2 47.7,16.2 52.2,12.6 54,5.4 51.3,9 48.15,10.35 44.55,9.45 42.496,8.937 41.028,7.446 39.403,5.797 36.756,3.11 33.692,0 27,0 Z M 13.5,16.2 C 6.3,16.2 1.8,19.8 0,27 c 2.7,-3.6 5.85,-4.95 9.45,-4.05 2.054,0.514 3.522,2.004 5.147,3.653 2.647,2.687 5.711,5.797 12.403,5.797 7.2,0 11.7,-3.6 13.5,-10.8 -2.7,3.6 -5.85,4.95 -9.45,4.05 C 28.996,25.137 27.528,23.646 25.903,21.997 23.256,19.31 20.192,16.2 13.5,16.2 Z"
             clip-rule="evenodd"
             id="path1"
             style="fill:#610c9f;fill-opacity:1" />
        </g>
      </g>
    </g>
  </g>
</svg>
